<svg width="8" height="61" viewBox="0 0 8 61" fill="none" xmlns="http://www.w3.org/2000/svg">
<path d="M3.64644 60.3536C3.84171 60.5488 4.15829 60.5488 4.35355 60.3536L7.53553 57.1716C7.73079 56.9763 7.73079 56.6597 7.53553 56.4645C7.34027 56.2692 7.02369 56.2692 6.82842 56.4645L4 59.2929L1.17157 56.4645C0.976308 56.2692 0.659726 56.2692 0.464464 56.4645C0.269201 56.6597 0.269201 56.9763 0.464464 57.1716L3.64644 60.3536ZM3.5 -2.18557e-08L3.5 1.5L4.5 1.5L4.5 2.18557e-08L3.5 -2.18557e-08ZM3.5 4.5L3.5 7.5L4.5 7.5L4.5 4.5L3.5 4.5ZM3.5 10.5L3.5 13.5L4.5 13.5L4.5 10.5L3.5 10.5ZM3.5 16.5L3.5 19.5L4.5 19.5L4.5 16.5L3.5 16.5ZM3.5 22.5L3.5 25.5L4.5 25.5L4.5 22.5L3.5 22.5ZM3.5 28.5L3.5 31.5L4.5 31.5L4.5 28.5L3.5 28.5ZM3.5 34.5L3.5 37.5L4.5 37.5L4.5 34.5L3.5 34.5ZM3.5 40.5L3.5 43.5L4.5 43.5L4.5 40.5L3.5 40.5ZM3.5 46.5L3.5 49.5L4.5 49.5L4.5 46.5L3.5 46.5ZM3.5 52.5L3.5 55.5L4.5 55.5L4.5 52.5L3.5 52.5ZM3.5 58.5L3.5 60L4.5 60L4.5 58.5L3.5 58.5ZM3.64644 60.3536C3.84171 60.5488 4.15829 60.5488 4.35355 60.3536L7.53553 57.1716C7.73079 56.9763 7.73079 56.6597 7.53553 56.4645C7.34027 56.2692 7.02369 56.2692 6.82842 56.4645L4 59.2929L1.17157 56.4645C0.976308 56.2692 0.659726 56.2692 0.464464 56.4645C0.269201 56.6597 0.269201 56.9763 0.464464 57.1716L3.64644 60.3536ZM3.5 -2.18557e-08L3.5 1.5L4.5 1.5L4.5 2.18557e-08L3.5 -2.18557e-08ZM3.5 4.5L3.5 7.5L4.5 7.5L4.5 4.5L3.5 4.5ZM3.5 10.5L3.5 13.5L4.5 13.5L4.5 10.5L3.5 10.5ZM3.5 16.5L3.5 19.5L4.5 19.5L4.5 16.5L3.5 16.5ZM3.5 22.5L3.5 25.5L4.5 25.5L4.5 22.5L3.5 22.5ZM3.5 28.5L3.5 31.5L4.5 31.5L4.5 28.5L3.5 28.5ZM3.5 34.5L3.5 37.5L4.5 37.5L4.5 34.5L3.5 34.5ZM3.5 40.5L3.5 43.5L4.5 43.5L4.5 40.5L3.5 40.5ZM3.5 46.5L3.5 49.5L4.5 49.5L4.5 46.5L3.5 46.5ZM3.5 52.5L3.5 55.5L4.5 55.5L4.5 52.5L3.5 52.5ZM3.5 58.5L3.5 60L4.5 60L4.5 58.5L3.5 58.5Z" fill="url(#paint0_linear_1254_29)"/>
<defs>
<linearGradient id="paint0_linear_1254_29" x1="3.5" y1="60" x2="3.5" y2="-2.18557e-08" gradientUnits="userSpaceOnUse">
<stop stop-color="white"/>
<stop offset="1" stop-color="white" stop-opacity="0"/>
</linearGradient>
</defs>
</svg>
