<svg width="50" height="50" viewBox="0 0 50 50" fill="none" xmlns="http://www.w3.org/2000/svg">
<g clip-path="url(#clip0_1254_12)">
<path d="M42.2468 18.3145L28.501 25.1046L50 17.0366L33.1336 15.6494L30.1559 8.57741L45.1047 10.3875L26.3806 5.88048L31.2806 17.7279L42.2468 18.3145Z" fill="white"/>
<path d="M23.1861 7.66782L25.4863 22.6669L24.3523 0L17.8021 15.3948L10.0673 16.0087L16.4285 2.53775L6.29663 18.7148L19.2311 17.7779L23.1861 7.66782Z" fill="white"/>
<path d="M0 27.0193L12.4643 41.5272L15.5573 29.0977L7.0342 22.2621L22.2043 24.7408L0 18.8012L12.8192 29.7026L11.0215 37.1521L0 27.0193Z" fill="#FF4400"/>
<path d="M16.1105 41.9274L23.1862 28.461L10.6021 47.4577L25.0715 38.803L31.6954 42.7915L18.5213 50L36.3557 42.787L25.3342 36.0469L16.1105 41.9274Z" fill="white"/>
<path d="M35.0512 29.0158L37.8769 39.4897L27.0813 28.6884L41.5 46.3662L37.628 30.1164L43.5236 25.1319L46.4 39.7217L44.9618 20.7568L35.0512 29.0158Z" fill="white"/>
</g>
<defs>
<clipPath id="clip0_1254_12">
<rect width="50" height="50" fill="white"/>
</clipPath>
</defs>
</svg>
